<svg xmlns="http://www.w3.org/2000/svg" viewBox="0 0 1280 720"><defs><style>.cls-1{fill:#4d4d4d;}.cls-2{fill:#b3b3b3;}.cls-3{fill:#333;}.cls-4{opacity:0.3;}.cls-5{fill:#f2f2f2;}.cls-6{fill:#fefefe;}</style></defs><title>memoplanner_icons</title><g id="BTNs_tablet"><g id="MixEdges"><path class="cls-1" d="M682.7,428.11l-.44,16.41a4.47,4.47,0,0,1-4,2.48h-10a4.34,4.34,0,0,1-4.28-4.47v-10a4.4,4.4,0,0,1,2.38-4Z"/><path class="cls-1" d="M704,432.53v10a4.62,4.62,0,0,1-4.61,4.47h-10a4.47,4.47,0,0,1-4-2.48l-.44-16.4,16.48.44A4.51,4.51,0,0,1,704,432.53Z"/><path class="cls-2" d="M704,411.42v10a4.52,4.52,0,0,1-2.55,4l-16.44.44.42-16.38a4.42,4.42,0,0,1,4-2.46h10A4.59,4.59,0,0,1,704,411.42Z"/><path class="cls-1" d="M682.7,425.84l-16.32-.44a4.39,4.39,0,0,1-2.38-4v-10a4.3,4.3,0,0,1,4.28-4.42h10a4.45,4.45,0,0,1,4,2.46Z"/></g></g><g id="ICONs_tablet"><g id="picture_dash" data-name="picture dash"><path id="SQUARE" class="cls-3" d="M878.94,140h-7v2h7v-2Zm-9,0h-7v2h7v-2Zm-9,0h-7v2h7v-2Zm-9,0H847l-.06,0h0l0,0h0l0,0v0h-.08l.08,0h0l-.1,0h0l.11,0v0h0v0l-.16,0h0l.17,0v0h0l-.11-.08h-.16l.27.05v0h0l-.17-.1h-.22a2.62,2.62,0,0,0-1.11.49l1.07,1.86a2.26,2.26,0,0,1,1.06-.35h4.37v-2Zm-8.11,2c-.26,0-.89.87-.89,1.34h0v.14h0l.14.5h.12l-.26-.19v-.16h0s.13.36.13.36h.06l0-.16,0,.07s0,.09,0,.09h-.12l-.13-.29v.14l.24.15h-.11s-.13-.27-.13-.27v.13l.12.14h-.12v-.1h0v.1h0v-.07h0v0h0V149h2v-4.55a2.57,2.57,0,0,1,.56-1.22L843.73,142Zm1.11,9h-2v6h2v-6Zm0,9h-2v6h2v-6Zm0,9h-2v6h2v-6Zm.61,7.59-2.26.87a4.74,4.74,0,0,0,2.65,2.42h1l-.22.14h-.19l.41-.05v0h0l-.16.11h-.15l.31-.05v0h0V180h0v-.07h0l-.12.05-.13,0h.25v-.06h0V180h0v0l-.21,0h.1l.11-.08v0l-.19,0h.09l.1-.07v0l-.17,0h.08l.09-.07v0l-.16,0h.06l.1,0h0V180h0v0h0v0h2v-2h-1.37a2.34,2.34,0,0,1-2-1.41ZM857.94,178h-7v2h7v-2Zm9,0h-7v2h7v-2Zm9,0h-7v2h7v-2Zm4.91-1.87a2.33,2.33,0,0,1-2.17,1.87h-.74v2h1.84l.16-.07v0l-.14,0h.39v0h0l-.28-.14v.07l.3.07h.1l-.4-.16v.08l.43.08h0l-.44-.17v0l.47.15h0l-.48-.18v.09l.49.09h0s-.49-.18.51-.19v0l-.48.16h0l.48-.19v.1l-.47.09h0l.45-.19v.09l-.44.1h0l.44-.2v0l-.41.17h0v0h0l.39-.21v-.19h0v.2l-.35.21h0l.35-.22v0l-.32.19h0l.31-.23v-.21h0v.23l-.27.22h0l.27-.25v.13l-.24.12h0a4.89,4.89,0,0,0,0-1h0s.18.24.18.23v.21h0v-.22l-.13-.23h0l.1.21v.11l0,.05,0,0h0V179h0l.07.21v.1l0,.05v0l0,0v-.2l0-.21h0v0h0a1.25,1.25,0,0,1,0,.19V179h0v.34h0v-.17l0-.18h0l0,.18v.15h0v-.16L881,179h0l-.08.16v.15h0V179h.12v.15l-.07.08s0,.07,0,.06v-.14l.15-.15h0l-.15.14v.07l.08,0h-.08v-.14l.18-.13h0l-.19.13v.11h0V179h0v.12l.22-.12h0v0h0v.19h0V179h0l-.27.1v.05l.15,0h.07l0-.09,0-.09h0v.09l-.15,0-.16,0h0l.17-.08.15-.08h0v0h0v.11h0V179h0v.1h0V179h0v.08h0V179h0v.07h0V179h0v0h0v.05h0V179h0v0h0v0h0v0h.14V179h0v-.08h.36v0l-.33.05h0v-.11h0V179h0l.27-.09v0l-.12,0h0l-.06.1,0,.09h0l.22-.21h0l-.1.21h-.06l0-.11V179h0l.2-.12v-.09h0v0h-.09l0,.12,0,.12h0l.16-.14v-.12h0l-.06.28h0l0-.15,0-.08.06-.07h0l-.06.3h0l0-.31h0l0,.31h0l.09-.17v-.18h0l0,.37h0s0-.2,0-.21v-.21h0l0,0h0a4.23,4.23,0,0,0,1.06-2l-2.18-.41Zm2.09-8.13h-2v6h2v-6Zm0-9h-2v6h2v-6Zm0-9h-2v6h2v-6Zm-1.14-8.55-1.54,1.5a2,2,0,0,1,.68,1.5V148h2v-3.55h0v0h0V144h0v-.29h0V144H883a4.55,4.55,0,0,0-1.2-2.55ZM878.94,140v2.22a3.23,3.23,0,0,1,.48.09l.55-2.2c-.06,0-.15-.11-.21-.11h0v0h0l.26.06v0l-.28,0h-.72Z"/><path class="cls-3" d="M877.11,175h-13c-.75,0-1.24-.66-.91-1.22L869.72,163a1.11,1.11,0,0,1,1.81,0L878,173.78C878.35,174.34,877.86,175,877.11,175Z"/><path class="cls-3" d="M867.07,175h-17.9a.92.92,0,0,1-.72-.32,1.14,1.14,0,0,1-.25-1.23l8.95-22.77a1,1,0,0,1,2,0l3.77,9.57,3.35,8.55,1.83,4.65A1.12,1.12,0,0,1,867.07,175Z"/><path class="cls-3" d="M876.87,150a3.76,3.76,0,1,1-1.1-2.65A3.74,3.74,0,0,1,876.87,150Z"/></g><g id="Clock"><path class="cls-1" d="M422.09,150.76l-20.67,20.66a2.68,2.68,0,0,1-.64-1.71c0-1.71,3.55-3.55,4.18-4.75.71-1.43,3.37-11,4.68-13.72,1.14-2.31,2.4-4.37,4.89-5a1.66,1.66,0,0,1-.2-.73,1.67,1.67,0,0,1,3.34,0,1.66,1.66,0,0,1-.2.73C419.78,146.82,421,148.65,422.09,150.76Z"/><path class="cls-1" d="M431.22,169.6c0,1.69-1.69,3-3.8,3h-8.09a3.33,3.33,0,1,1-6.66,0h-6.29l17.49-17.38c1.26,3.8,2.68,8.69,3.17,9.67C427.67,166,431.22,167.89,431.22,169.6Z"/><path class="cls-1" d="M405.59,160.22a.85.85,0,0,0,.6-1.45,5.93,5.93,0,0,1,0-8.38.84.84,0,0,0,0-1.19.85.85,0,0,0-1.2,0A7.62,7.62,0,0,0,405,160,.86.86,0,0,0,405.59,160.22Z"/><path class="cls-1" d="M403.2,162.61a.89.89,0,0,0,.6-.25.87.87,0,0,0,0-1.2,9.29,9.29,0,0,1,0-13.16.84.84,0,1,0-1.2-1.19,11,11,0,0,0,0,15.55A.86.86,0,0,0,403.2,162.61Z"/><path class="cls-1" d="M400.8,165a.85.85,0,0,0,.61-1.44,12.7,12.7,0,0,1,0-17.95.85.85,0,1,0-1.21-1.2,14.41,14.41,0,0,0,0,20.34A.85.85,0,0,0,400.8,165Z"/><path class="cls-1" d="M427,160a.9.9,0,0,1-1.22,0,.89.89,0,0,1,0-1.2,6,6,0,0,0,1.22-6.65l1.27-1.26A7.7,7.7,0,0,1,427,160Z"/><path class="cls-1" d="M429.4,162.36a.81.81,0,0,1-.6.24.79.79,0,0,1-.6-.24.85.85,0,0,1,0-1.2,9.29,9.29,0,0,0,1.31-11.52l1.24-1.24A11.08,11.08,0,0,1,429.4,162.36Z"/><path class="cls-1" d="M431.8,164.76a.93.93,0,0,1-.6.24.87.87,0,0,1-.6-.24.83.83,0,0,1,0-1.2,12.7,12.7,0,0,0,1.33-16.34l1.22-1.22A14.4,14.4,0,0,1,431.8,164.76Z"/><path class="cls-1" d="M398.22,178.89a1.08,1.08,0,0,1-.78-.33,1.1,1.1,0,0,1,0-1.57L433,141.44a1.11,1.11,0,0,1,1.57,1.57L399,178.56A1.11,1.11,0,0,1,398.22,178.89Z"/><path class="cls-1" d="M516.05,164.76c-.72-1.41-3.38-11-4.7-13.71-1.12-2.32-2.39-4.37-4.87-5a1.67,1.67,0,1,0-3,0c-2.48.58-3.75,2.63-4.87,5-1.32,2.73-4,12.3-4.7,13.71-.62,1.21-4.18,3.24-4.18,4.94a3.64,3.64,0,0,0,3.81,3.27h8.09c0,1,1.49,3.33,3.33,3.33s3.33-2.33,3.33-3.33h8.09a3.64,3.64,0,0,0,3.81-3.27C520.23,168,516.67,166,516.05,164.76Z"/><path class="cls-1" d="M494.59,160a.82.82,0,0,0,.6-.25.84.84,0,0,0,0-1.19,5.93,5.93,0,0,1,0-8.38A.84.84,0,1,0,494,149a7.61,7.61,0,0,0,0,10.76A.82.82,0,0,0,494.59,160Z"/><path class="cls-1" d="M492.2,162.41a.84.84,0,0,0,.6-1.44,9.29,9.29,0,0,1,0-13.16.87.87,0,0,0,0-1.2.85.85,0,0,0-1.2,0,11,11,0,0,0,0,15.56A.85.85,0,0,0,492.2,162.41Z"/><path class="cls-1" d="M489.8,164.81a.9.9,0,0,0,.61-.25.87.87,0,0,0,0-1.2,12.69,12.69,0,0,1,0-17.94.85.85,0,0,0-1.21-1.2,14.41,14.41,0,0,0,0,20.34A.89.89,0,0,0,489.8,164.81Z"/><path class="cls-1" d="M515.41,160a.82.82,0,0,1-.6-.25.84.84,0,0,1,0-1.19,5.93,5.93,0,0,0,0-8.38A.85.85,0,0,1,516,149a7.61,7.61,0,0,1,0,10.76A.82.82,0,0,1,515.41,160Z"/><path class="cls-1" d="M517.8,162.41a.84.84,0,0,1-.6-1.44,9.29,9.29,0,0,0,0-13.16.87.87,0,0,1,0-1.2.85.85,0,0,1,1.2,0,11,11,0,0,1,0,15.56A.85.85,0,0,1,517.8,162.41Z"/><path class="cls-1" d="M520.2,164.81a.9.9,0,0,1-.61-.25.87.87,0,0,1,0-1.2,12.69,12.69,0,0,0,0-17.94.85.85,0,1,1,1.21-1.2,14.41,14.41,0,0,1,0,20.34A.89.89,0,0,1,520.2,164.81Z"/><path class="cls-1" d="M606.05,164.76c-.72-1.41-3.38-11-4.7-13.71-1.12-2.32-2.39-4.37-4.87-5a1.67,1.67,0,1,0-3,0c-2.48.58-3.75,2.63-4.87,5-1.32,2.73-4,12.3-4.7,13.71-.62,1.21-4.18,3.24-4.18,4.94a3.64,3.64,0,0,0,3.81,3.27h8.09c0,1,1.49,3.33,3.33,3.33s3.33-2.33,3.33-3.33h8.09a3.64,3.64,0,0,0,3.81-3.27C610.23,168,606.67,166,606.05,164.76Z"/><path class="cls-1" d="M697.42,153.77H689.8c-.33,0-.73.83-1.16,1.25a1.54,1.54,0,0,1-1.13.44,3.08,3.08,0,0,1,1.09,2.1s0,.21,0,.21h10.47v18h-14v-15h-1v16.79c0,1.47.68,2.21,1.93,2.21h11.44a2.4,2.4,0,0,0,2.63-2.21V156.23A2.6,2.6,0,0,0,697.42,153.77Zm-4.58,25h-2.28c-.32,0-.58-.12-.58-.5s.26-.5.58-.5h2.28c.32,0,.58.13.58.5S693.16,178.77,692.84,178.77Z"/><path class="cls-1" d="M683.36,162.16l-1.94,4.73,1.94,4.74a.49.49,0,0,1,0,.24l-2,4.87a.34.34,0,0,1-.31.22.13.13,0,0,1-.11-.05.31.31,0,0,1-.2-.42l1.91-4.73L680.76,167a.42.42,0,0,1,0-.27l1.91-4.65-.58-1.34h.73l.54,1.23A.22.22,0,0,1,683.36,162.16Z"/><path class="cls-1" d="M682,162.16l-1.93,4.73,1.93,4.74a.49.49,0,0,1,0,.24l-2,4.87a.32.32,0,0,1-.31.22.14.14,0,0,1-.11-.05.32.32,0,0,1-.2-.42l1.91-4.73L679.42,167a.61.61,0,0,1,0-.27l1.91-4.65-.57-1.34h.73L682,162A.22.22,0,0,1,682,162.16Z"/><path class="cls-1" d="M702.33,177a.32.32,0,0,1-.3-.21l-2-4.86a.36.36,0,0,1,0-.25l1.91-4.74-1.91-4.73a.36.36,0,0,1,0-.25l2-4.86a.32.32,0,0,1,.43-.19.33.33,0,0,1,.18.44L700.73,162l1.91,4.74a.36.36,0,0,1,0,.25l-1.91,4.73,1.91,4.74a.33.33,0,0,1-.18.43A.28.28,0,0,1,702.33,177Z"/><path class="cls-1" d="M703.67,177a.34.34,0,0,1-.31-.21l-2-4.86a.36.36,0,0,1,0-.25l1.92-4.74-1.92-4.73a.36.36,0,0,1,0-.25l2-4.86a.32.32,0,0,1,.43-.19.35.35,0,0,1,.19.44L702.06,162l1.92,4.74a.36.36,0,0,1,0,.25l-1.92,4.73,1.92,4.74a.34.34,0,0,1-.19.43A.27.27,0,0,1,703.67,177Z"/><path class="cls-1" d="M684.7,154.27c-.48-.94-2.25-7.32-3.14-9.14-.74-1.55-1.59-2.91-3.24-3.3a1.14,1.14,0,0,0,.12-.49,1.11,1.11,0,1,0-2.22,0,1,1,0,0,0,.13.49c-1.65.39-2.5,1.75-3.25,3.3-.88,1.82-2.66,8.2-3.14,9.14s-2.78,2.18-2.78,3.31a2.44,2.44,0,0,0,2.54,2.19h5.39a2.23,2.23,0,1,0,4.45,0H685a2.44,2.44,0,0,0,2.54-2.19C687.49,156.45,685.11,155.07,684.7,154.27Z"/><path class="cls-1" d="M670.39,151.11a.57.57,0,0,0,.4-1,4,4,0,0,1,0-5.59.57.57,0,0,0-.8-.8,5.08,5.08,0,0,0,0,7.18A.58.58,0,0,0,670.39,151.11Z"/><path class="cls-1" d="M668.8,152.7a.57.57,0,0,0,.4-.16.59.59,0,0,0,0-.8,6.2,6.2,0,0,1,0-8.77.59.59,0,0,0,0-.8.57.57,0,0,0-.8,0,7.34,7.34,0,0,0,0,10.37A.55.55,0,0,0,668.8,152.7Z"/><path class="cls-1" d="M667.2,154.3a.57.57,0,0,0,.4-1,8.47,8.47,0,0,1,0-12,.57.57,0,1,0-.8-.8,9.61,9.61,0,0,0,0,13.56A.58.58,0,0,0,667.2,154.3Z"/><path class="cls-1" d="M684.27,151.11a.58.58,0,0,1-.4-.17.56.56,0,0,1,0-.79,4,4,0,0,0,0-5.59.57.57,0,0,1,.8-.8,5.08,5.08,0,0,1,0,7.18A.56.56,0,0,1,684.27,151.11Z"/><path class="cls-1" d="M685.87,152.7a.55.55,0,0,1-.4-.16.57.57,0,0,1,0-.8,6.2,6.2,0,0,0,0-8.77.57.57,0,0,1,.8-.8,7.36,7.36,0,0,1,0,10.37A.57.57,0,0,1,685.87,152.7Z"/><path class="cls-1" d="M687.46,154.3a.57.57,0,0,1-.4-1,8.47,8.47,0,0,0,0-12,.59.59,0,0,1,0-.8.57.57,0,0,1,.8,0,9.6,9.6,0,0,1,0,13.56A.56.56,0,0,1,687.46,154.3Z"/></g><g id="Add"><path class="cls-1" d="M615,427a2.78,2.78,0,0,1-2.78,2.78l-14,.44-.44,14a2.78,2.78,0,0,1-5.56,0l-.44-14-14-.44a2.78,2.78,0,0,1,0-5.56l14-.44.44-14a2.78,2.78,0,0,1,5.56,0l.44,14,14,.44A2.78,2.78,0,0,1,615,427Z"/></g><g id="Timer"><g id="CIRCLE" class="cls-4"><circle class="cls-1" cx="950" cy="427" r="20"/></g><path id="CIRCLE-2" data-name="CIRCLE" class="cls-1" d="M949.65,407v5.05c0,.53.6.95,1.13,1,9.46.64,16.46,10.71,11.47,20.86a12,12,0,0,1-5.59,5.55,14.31,14.31,0,0,1-15.88-1.89,1,1,0,0,0-1.37,0l-3.56,3.56c5.45,5.44,14,7.76,22.76,4.05a17.73,17.73,0,0,0,9.34-9.43C974.27,421.13,963.65,407,949.65,407Z"/></g><g id="Day"><path class="cls-1" d="M339.38,409.62a4.45,4.45,0,0,0-1.83-.4h-1.1v2.23a3.32,3.32,0,0,1-.33,1.45,3.52,3.52,0,0,1-1.55,1.55,3.25,3.25,0,0,1-1.45.33,3.34,3.34,0,0,1-3.34-3.33v-2.23H314.22v2.23a3.34,3.34,0,0,1-6.67,0v-2.23h-1.1a4.46,4.46,0,0,0-4.45,4.45v28.88a4.44,4.44,0,0,0,4.45,4.45h31.1a4.46,4.46,0,0,0,4.45-4.45V413.67A4.44,4.44,0,0,0,339.38,409.62Zm.4,32.93a2.23,2.23,0,0,1-2.23,2.23h-31.1a2.22,2.22,0,0,1-2.23-2.23V418.12h35.56Z"/><path class="cls-1" d="M313.17,409.22v2.23a2,2,0,1,1-4,0v-2.23a2,2,0,1,1,4,0Z"/><path class="cls-1" d="M335.17,409.22v2.23a2,2,0,1,1-4,0v-2.23a2,2,0,1,1,4,0Z"/><rect class="cls-1" x="315.17" y="425.16" width="13" height="13" rx="1.67" ry="1.67"/></g><g id="Week"><path class="cls-1" d="M433.38,409.62a4.45,4.45,0,0,0-1.83-.4h-1.1v2.23a3.32,3.32,0,0,1-.33,1.45,3.52,3.52,0,0,1-1.55,1.55,3.25,3.25,0,0,1-1.45.33,3.34,3.34,0,0,1-3.34-3.33v-2.23H408.22v2.23a3.34,3.34,0,0,1-6.67,0v-2.23h-1.1a4.46,4.46,0,0,0-4.45,4.45v28.88a4.44,4.44,0,0,0,4.45,4.45h31.1a4.46,4.46,0,0,0,4.45-4.45V413.67A4.44,4.44,0,0,0,433.38,409.62Zm.4,32.93a2.23,2.23,0,0,1-2.23,2.23h-31.1a2.22,2.22,0,0,1-2.23-2.23V418.12h35.56Z"/><path class="cls-1" d="M406.83,409.22v2.23a2,2,0,1,1-4,0v-2.23a2,2,0,1,1,4,0Z"/><path class="cls-1" d="M429.83,409.22v2.23a2.52,2.52,0,0,1-5,0v-2.23a2.52,2.52,0,0,1,5,0Z"/><rect class="cls-1" x="416.83" y="431.51" width="7" height="7" rx="1" ry="1"/><rect class="cls-1" x="400.83" y="431.51" width="7" height="7" rx="1" ry="1"/><rect class="cls-1" x="408.83" y="431.51" width="7" height="7" rx="1" ry="1"/><rect class="cls-1" x="400.83" y="422.51" width="7" height="7" rx="1" ry="1"/><rect class="cls-1" x="408.83" y="422.51" width="7" height="7" rx="1" ry="1"/><rect class="cls-1" x="416.83" y="422.51" width="7" height="7" rx="1" ry="1"/><rect class="cls-1" x="424.83" y="422.51" width="7" height="7" rx="1" ry="1"/></g><g id="Month"><path class="cls-1" d="M522.38,409.62a4.45,4.45,0,0,0-1.83-.4h-1.1v2.23a3.32,3.32,0,0,1-.33,1.45,3.52,3.52,0,0,1-1.55,1.55,3.25,3.25,0,0,1-1.45.33,3.34,3.34,0,0,1-3.34-3.33v-2.23H497.22v2.23a3.34,3.34,0,0,1-6.67,0v-2.23h-1.1a4.46,4.46,0,0,0-4.45,4.45v28.88a4.44,4.44,0,0,0,4.45,4.45h31.1a4.46,4.46,0,0,0,4.45-4.45V413.67A4.44,4.44,0,0,0,522.38,409.62Zm.4,32.93a2.23,2.23,0,0,1-2.23,2.23h-31.1a2.22,2.22,0,0,1-2.23-2.23V418.12h35.56Z"/><path class="cls-1" d="M495.81,409.22v2.23a2,2,0,1,1-4,0v-2.23a2,2,0,1,1,4,0Z"/><path class="cls-1" d="M518.81,409.22v2.23a2.52,2.52,0,0,1-5,0v-2.23a2.52,2.52,0,0,1,5,0Z"/><rect class="cls-1" x="497.81" y="422.16" width="4" height="4" rx="0.3" ry="0.3"/><rect class="cls-1" x="502.81" y="422.16" width="4" height="4" rx="0.3" ry="0.3"/><rect class="cls-1" x="507.81" y="422.16" width="4" height="4" rx="0.3" ry="0.3"/><rect class="cls-1" x="512.81" y="422.16" width="4" height="4" rx="0.3" ry="0.3"/><rect class="cls-1" x="517.81" y="422.16" width="4" height="4" rx="0.3" ry="0.3"/><rect class="cls-1" x="487.81" y="427.16" width="4" height="4" rx="0.3" ry="0.3"/><rect class="cls-1" x="492.81" y="427.16" width="4" height="4" rx="0.3" ry="0.3"/><rect class="cls-1" x="497.81" y="427.16" width="4" height="4" rx="0.3" ry="0.3"/><rect class="cls-1" x="502.81" y="427.16" width="4" height="4" rx="0.3" ry="0.3"/><rect class="cls-1" x="507.81" y="427.16" width="4" height="4" rx="0.3" ry="0.3"/><rect class="cls-1" x="512.81" y="427.16" width="4" height="4" rx="0.3" ry="0.3"/><rect class="cls-1" x="517.81" y="427.16" width="4" height="4" rx="0.3" ry="0.3"/><rect class="cls-1" x="487.81" y="432.16" width="4" height="4" rx="0.3" ry="0.3"/><rect class="cls-1" x="492.81" y="432.16" width="4" height="4" rx="0.3" ry="0.3"/><rect class="cls-1" x="497.81" y="432.16" width="4" height="4" rx="0.3" ry="0.3"/><rect class="cls-1" x="502.81" y="432.16" width="4" height="4" rx="0.3" ry="0.3"/><rect class="cls-1" x="507.81" y="432.16" width="4" height="4" rx="0.3" ry="0.3"/><rect class="cls-1" x="512.81" y="432.16" width="4" height="4" rx="0.3" ry="0.3"/><rect class="cls-1" x="517.81" y="432.16" width="4" height="4" rx="0.3" ry="0.3"/><rect class="cls-1" x="487.81" y="437.16" width="4" height="4" rx="0.3" ry="0.3"/><rect class="cls-1" x="492.81" y="437.16" width="4" height="4" rx="0.3" ry="0.3"/><rect class="cls-1" x="497.81" y="437.16" width="4" height="4" rx="0.3" ry="0.3"/><rect class="cls-1" x="502.81" y="437.16" width="4" height="4" rx="0.3" ry="0.3"/><rect class="cls-1" x="507.81" y="437.16" width="4" height="4" rx="0.3" ry="0.3"/><rect class="cls-1" x="512.81" y="437.16" width="4" height="4" rx="0.3" ry="0.3"/></g><g id="Type"><path class="cls-1" d="M323,141a1,1,0,1,0,0,1.9,17.09,17.09,0,1,1-16.69,20.79l1.91-.42a.47.47,0,0,0,.16-.85l-3.45-2.21a.47.47,0,0,0-.65.14l-2.21,3.45a.47.47,0,0,0,.49.71l1.89-.42A19,19,0,1,0,323,141Z"/><rect class="cls-1" x="322.54" y="141.01" width="0.95" height="1.9" rx="0.25" ry="0.25"/><path class="cls-1" d="M321.65,166.88h-10v-1.72l5.13-6.07a16,16,0,0,0,1.86-2.62,4.4,4.4,0,0,0,.49-2,2.61,2.61,0,0,0-.65-1.84,2.33,2.33,0,0,0-1.81-.72,2.67,2.67,0,0,0-2.19.81,2.87,2.87,0,0,0-.75,2.12h-2.14a4.33,4.33,0,0,1,1.33-3.32,5.09,5.09,0,0,1,3.75-1.35,4.72,4.72,0,0,1,3.41,1.21,4.1,4.1,0,0,1,1.25,3.11,5,5,0,0,1-.71,2.5,26.47,26.47,0,0,1-2.15,3.07l-4.08,4.76,0,0h7.24Z"/><path class="cls-1" d="M332.65,160.88h2v2h-2v4h-2v-4h-7v-1.19l6.86-10.81h2.14Zm-6.61,0h4.61v-7.27h-.07l-.21.39Z"/></g><g id="PicCalendar_copy" data-name="PicCalendar copy"><path class="cls-1" d="M880.38,409.62a4.45,4.45,0,0,0-1.83-.4h-1.1v2.23a3.32,3.32,0,0,1-.33,1.45,3.52,3.52,0,0,1-1.55,1.55,3.25,3.25,0,0,1-1.45.33,3.34,3.34,0,0,1-3.34-3.33v-2.23H855.22v2.23a3.34,3.34,0,0,1-6.67,0v-2.23h-1.1a4.46,4.46,0,0,0-4.45,4.45v28.88a4.44,4.44,0,0,0,4.45,4.45h31.1a4.46,4.46,0,0,0,4.45-4.45V413.67A4.44,4.44,0,0,0,880.38,409.62Zm.4,32.93a2.23,2.23,0,0,1-2.23,2.23h-31.1a2.22,2.22,0,0,1-2.23-2.23V418.12h35.56Z"/><path class="cls-1" d="M853.83,409.22v2.23a2,2,0,1,1-4,0v-2.23a2,2,0,1,1,4,0Z"/><path class="cls-1" d="M876.83,409.22v2.23a2.52,2.52,0,0,1-5,0v-2.23a2.52,2.52,0,0,1,5,0Z"/><path class="cls-1" d="M873.88,442.2H863.79c-.58,0-1-.44-.7-.88l5-8.37a.87.87,0,0,1,1.41,0l5,8.34C874.84,441.75,874.46,442.2,873.88,442.2Z"/><path class="cls-1" d="M866.07,442.2H852.15a.67.67,0,0,1-.56-.18.83.83,0,0,1-.19-.92l7-17.69a.81.81,0,0,1,1.51,0l2.94,7.45,2.6,6.65,1.42,3.55A.81.81,0,0,1,866.07,442.2Z"/><path class="cls-1" d="M873.69,422.9a2.91,2.91,0,0,1-2.91,2.92,2.94,2.94,0,0,1-2.92-2.92,2.92,2.92,0,1,1,5.83,0Z"/></g><g id="FastSettings-2" data-name="FastSettings"><path class="cls-1" d="M968.48,152.56h-1.93a14,14,0,0,0-1.28-3.25l1.38-1.41a1.58,1.58,0,0,0,0-2.18l-2.15-2.16a1.51,1.51,0,0,0-2.15,0L961,144.9a11.84,11.84,0,0,0-3.11-1.3v-1.93c0-.82-.72-1.11-1.57-1.11h-3c-.85,0-1.42.26-1.42,1.11v1.93a13.52,13.52,0,0,0-3.19,1.27l-1.37-1.35a1.52,1.52,0,0,0-2.16,0l-2.13,2.15a1.5,1.5,0,0,0,0,2.15l1.32,1.35a11.82,11.82,0,0,0-1.25,3l-1.79,0a1.45,1.45,0,0,0-1.43,1.52v3a1.39,1.39,0,0,0,1.38,1.52l1.85,0a11.68,11.68,0,0,0,1.24,3.13L943,162.78a1.54,1.54,0,0,0,0,2.14l1.08,1.14,1,1a1.55,1.55,0,0,0,2.15,0l1.44-1.35a13.55,13.55,0,0,0,3.22,1.33V169a1.43,1.43,0,0,0,1.41,1.52l3.06,0a1.52,1.52,0,0,0,1.53-1.5v-1.93a12.79,12.79,0,0,0,3.08-1.27l1.32,1.35a1.5,1.5,0,0,0,2.13,0l2.14-2.15a1.5,1.5,0,0,0,0-2.14l-1.33-1.28a13.65,13.65,0,0,0,1.3-3.06h1.91A1.6,1.6,0,0,0,970,157l0-3A1.48,1.48,0,0,0,968.48,152.56Zm-9.36,6.84a6.08,6.08,0,0,1-8.59.12l0,0a6.22,6.22,0,0,1,8.59-9h0C961.48,153.56,961.48,157,959.12,159.4Z"/><path class="cls-1" d="M943.05,149.36c-.24.53-.46,1.23-.65,1.76l-.22.44h-.94a2.46,2.46,0,0,0-1.86.53,2.21,2.21,0,0,0-.77,1.72l0,1-6.73,6.73a1.09,1.09,0,0,1-1.55,0,1.1,1.1,0,0,1-.31-.78,1,1,0,0,1,.31-.75L942,148.25c.07.1.17.22.27.34Z"/><path class="cls-1" d="M943,161.21l-.79.79a2.62,2.62,0,0,0-.7,1.48l-3.84,3.83a1.06,1.06,0,0,1-1.54,0,1.12,1.12,0,0,1,0-1.54l6.2-6.2A14.47,14.47,0,0,0,943,161.21Z"/><path class="cls-1" d="M944.35,167.86a2.8,2.8,0,0,0,.59.45l-1.6,1.61a1.09,1.09,0,1,1-1.54-1.54l1.54-1.53Z"/><path class="cls-1" d="M950.91,167.88V169a2.65,2.65,0,0,0,0,.94l-6.87,6.81a1.13,1.13,0,0,1-1.57,0,1.08,1.08,0,0,1,0-1.53l7.68-7.57C950.37,167.74,950.91,167.82,950.91,167.88Z"/><path class="cls-1" d="M961.52,167.94a2.54,2.54,0,0,0,1.45.72l-10.45,10.47a1.09,1.09,0,1,1-1.53-1.54l10.08-10.1Z"/></g></g><g id="ICONs_mobile"><g id="Microphone-2" data-name="Microphone"><path class="cls-1" d="M780.74,151.33h1.76v2h-1.76a1,1,0,1,0,0,2h1.76v2h-1.76c-.63,0-1.11.88-1.11,1.5s.48,1.5,1.11,1.5H783a9.34,9.34,0,0,1-8.89,8.67,8.65,8.65,0,0,1-8.89-8.67h2.22c.63,0,1.11-.87,1.11-1.5s-.48-1.5-1.11-1.5h-1.9v-2h1.9a1,1,0,1,0,0-2h-1.9v-2h1.9c.63,0,1.11-.87,1.11-1.5s-.48-1.5-1.11-1.5h-2.22c0-4,3.85-8.66,8.76-8.66,4.24,0,7.56,3.2,8.56,7.2v0a3.88,3.88,0,0,0,.46,1.44h-2.22a1.3,1.3,0,0,0-1.11,1.34,1.75,1.75,0,0,0,.48,1.21C780.29,151,780.51,151.33,780.74,151.33Z"/><path class="cls-1" d="M775.5,173.16v4.17H783c.62,0,1.11.88,1.11,1.5s-.49,1.5-1.11,1.5H765.18c-.62,0-1.11-.87-1.11-1.5s.49-1.5,1.11-1.5h7.32v-4.17a14,14,0,0,1-6.16-2.2,13.11,13.11,0,0,1-5.84-11.07v-4.44a1,1,0,1,1,2,0v4.44a11.33,11.33,0,0,0,5.16,9.24,12,12,0,0,0,6.45,1.87,11.35,11.35,0,0,0,11.39-11.11v-4.44a1,1,0,1,1,2,0v4.44A13,13,0,0,1,775.5,173.16Z"/><circle class="cls-5" cx="774.07" cy="164.33" r="2.22"/></g><g id="Eye"><path id="CIRCLE-3" data-name="CIRCLE" class="cls-1" d="M774.16,414.42a10.49,10.49,0,1,1-10.49,10.48,10.49,10.49,0,0,1,10.49-10.48m0-2.1a12.58,12.58,0,1,0,12.58,12.58,12.58,12.58,0,0,0-12.58-12.58Z"/><path class="cls-1" d="M791,420.73v0a21.42,21.42,0,0,0-34,0v0c-1,1.87-2.52,4-3.23,6.27.71,2.29,2.23,4.4,3.23,6.27v0a21.42,21.42,0,0,0,34,0v0c1-1.87,2.52-4,3.23-6.27C793.52,424.71,792,422.6,791,420.73Zm-16.84,16.75c-7,0-15.14-4.34-17.63-10.48,2.49-6.14,10.6-10.48,17.63-10.48s15.13,4.34,17.63,10.48C789.29,433.14,781.18,437.48,774.16,437.48Z"/><g id="CIRCLE-4" data-name="CIRCLE"><circle class="cls-1" cx="774.16" cy="424.9" r="8.39"/></g></g><g id="Zoom_small"><path id="Glass" class="cls-1" d="M767.76,268.53a18.89,18.89,0,1,1-18.88,18.88,18.9,18.9,0,0,1,18.88-18.88m0-2.88a21.77,21.77,0,1,0,21.77,21.76,21.76,21.76,0,0,0-21.77-21.76Z"/><path class="cls-1" d="M799.12,320.35a2.85,2.85,0,0,1-2-.84l-14.67-14.67a2.88,2.88,0,1,1,4.07-4.07l14.67,14.67a2.88,2.88,0,0,1-2,4.91Z"/><path class="cls-1" d="M766.24,289.91h-3.31l-.79,2h-1.21l3.17-9h1l3.11,9H767Zm-3-1h2.63l-1.28-4h0Z"/><path class="cls-1" d="M773.38,291.91a2.7,2.7,0,0,1-.1-.6c0-.15,0-.35,0-.5a2.66,2.66,0,0,1-.86.77,2.24,2.24,0,0,1-1.16.31,2.11,2.11,0,0,1-1.55-.53,1.92,1.92,0,0,1-.54-1.44,1.73,1.73,0,0,1,.76-1.48,3.57,3.57,0,0,1,2.06-.53h1.45v-.64a1.25,1.25,0,0,0-.43-.91,1.48,1.48,0,0,0-1-.33,1.47,1.47,0,0,0-1,.29.88.88,0,0,0-.36.69l-1.14,0v0a1.57,1.57,0,0,1,.66-1.31,2.82,2.82,0,0,1,1.84-.59,2.63,2.63,0,0,1,1.77.57,2,2,0,0,1,.66,1.63v3.14c0,.24,0,.54.05.76s.09.72.15.72Zm-2-1a2.43,2.43,0,0,0,1.25-.33c.34-.22.75-.48.75-.76v-.88h-1.49a1.71,1.71,0,0,0-1.15.27,1,1,0,0,0-.44.8.83.83,0,0,0,.28.67A1.13,1.13,0,0,0,771.4,290.88Z"/><path id="Glass-2" data-name="Glass" class="cls-1" d="M856.76,268.53a18.89,18.89,0,1,1-18.88,18.88,18.9,18.9,0,0,1,18.88-18.88m0-2.88a21.77,21.77,0,1,0,21.77,21.76,21.76,21.76,0,0,0-21.77-21.76Z"/><path class="cls-1" d="M888.12,320.35a2.85,2.85,0,0,1-2-.84l-14.67-14.67a2.88,2.88,0,1,1,4.07-4.07l14.67,14.67a2.88,2.88,0,0,1-2,4.91Z"/><path class="cls-1" d="M854.22,291.36H848.7l-1.31,3h-2l5.29-14h1.7l5.18,14h-2Zm-4.94-2h4.38l-2.14-6h-.06Z"/><path class="cls-1" d="M866.12,294.36c-.07,0-.12-.48-.16-.73a5.2,5.2,0,0,1-.07-.69,4.67,4.67,0,0,1-1.44,1.35,3.72,3.72,0,0,1-1.92.55,3.56,3.56,0,0,1-2.59-.87,3.15,3.15,0,0,1-.89-2.39,2.72,2.72,0,0,1,1.26-2.39,5.89,5.89,0,0,1,3.43-.83h2.58v-1.18a2.2,2.2,0,0,0-.8-1.52,2.58,2.58,0,0,0-1.76-.56,2.51,2.51,0,0,0-1.61.49,1.47,1.47,0,0,0-.62,1.16l-1.9,0,0-.06a2.6,2.6,0,0,1,1.11-2.18,4.57,4.57,0,0,1,3-1,5.17,5.17,0,0,1,3.2.94,3.52,3.52,0,0,1,1.35,2.72v5.25c0,.39-.2.62-.16,1s-.11.92,0,.92Zm-3.3-1.17a4.29,4.29,0,0,0,2.16-.55c.58-.37.34-.8,1.34-1.27v-2h-2.65a3,3,0,0,0-1.92.72,1.94,1.94,0,0,0-.72,1.48,1.56,1.56,0,0,0,.45,1.18A1.93,1.93,0,0,0,862.82,293.19Z"/><path id="Glass-3" data-name="Glass" class="cls-1" d="M943.76,268.53a18.89,18.89,0,1,1-18.88,18.88,18.9,18.9,0,0,1,18.88-18.88m0-2.88a21.77,21.77,0,1,0,21.77,21.76,21.76,21.76,0,0,0-21.77-21.76Z"/><path class="cls-1" d="M975.12,320.35a2.85,2.85,0,0,1-2-.84l-14.67-14.67a2.88,2.88,0,1,1,4.07-4.07l14.67,14.67a2.88,2.88,0,0,1-2,4.91Z"/><path class="cls-1" d="M940.2,291.9h-7.72l-1.84,6h-2.83l7.4-21h2.39l7.24,21H942Zm-6.92-2h6.13l-3-9h-.09Z"/><path class="cls-1" d="M956.86,297.9a11.47,11.47,0,0,0-.22-1.4,11.32,11.32,0,0,1-.09-1.16,6.41,6.41,0,0,1-2,1.79,5.07,5.07,0,0,1-2.68.72,5,5,0,0,1-3.63-1.23,4.47,4.47,0,0,1-1.25-3.37,3.68,3.68,0,0,1,1.77-3.27,8.31,8.31,0,0,1,4.8-1.08h2.79v-1.82a2.75,2.75,0,0,0-.7-2.12,3.09,3.09,0,0,0-2.26-.78,3.25,3.25,0,0,0-2.16.68,2,2,0,0,0-.82,1.62l-2.62,0,0-.09a3.64,3.64,0,0,1,1.56-3,6.41,6.41,0,0,1,4.28-1.39,6.28,6.28,0,0,1,4.17,1.32,4.66,4.66,0,0,1,1.58,3.8v7.35a16.86,16.86,0,0,0,.09,1.76c.05.51.16.68.31,1.68Zm-4.61-2.4a4.59,4.59,0,0,0,2.6-.77c.81-.52,1.47-1.11,1.47-1.78V290.9h-2.89a4,4,0,0,0-2.69.63,2.33,2.33,0,0,0-1,1.88,2,2,0,0,0,.63,1.55A2.63,2.63,0,0,0,952.25,295.5Z"/></g><g id="Sun"><circle class="cls-1" cx="505" cy="293" r="16.8"/><path class="cls-1" d="M505,265c-1.55,0-2.8,4.3-2.8,5.6a2.8,2.8,0,1,0,5.6,0C507.8,269.3,506.55,265,505,265Z"/><path class="cls-1" d="M519,268.77c-1.34-.78-4.58,2.32-5.23,3.44a2.8,2.8,0,0,0,4.85,2.81C519.3,273.89,520.37,269.55,519,268.77Z"/><path class="cls-1" d="M529.28,279.06c-.77-1.34-5.12-.29-6.25.36a2.8,2.8,0,0,0,2.79,4.86C527,283.63,530.05,280.4,529.28,279.06Z"/><path class="cls-1" d="M533,293.1c0-1.55-4.29-2.81-5.59-2.82a2.8,2.8,0,1,0,0,5.6C528.69,295.89,533,294.65,533,293.1Z"/><path class="cls-1" d="M529.18,307.12c.78-1.34-2.3-4.59-3.42-5.24a2.8,2.8,0,0,0-2.83,4.83C524.06,307.37,528.4,308.46,529.18,307.12Z"/><path class="cls-1" d="M518.85,317.33c1.35-.76.31-5.12-.34-6.25a2.8,2.8,0,1,0-4.86,2.77C514.29,315,517.5,318.1,518.85,317.33Z"/><path class="cls-1" d="M504.79,321c1.55,0,2.83-4.28,2.84-5.58a2.8,2.8,0,1,0-5.6,0C502,316.68,503.24,321,504.79,321Z"/><path class="cls-1" d="M490.79,317.13c1.34.78,4.6-2.29,5.26-3.41a2.8,2.8,0,0,0-4.83-2.84C490.56,312,489.46,316.34,490.79,317.13Z"/><path class="cls-1" d="M480.61,306.76c.77,1.35,5.12.33,6.26-.31a2.8,2.8,0,0,0-2.76-4.88C483,302.21,479.85,305.41,480.61,306.76Z"/><path class="cls-1" d="M477,292.69c0,1.55,4.27,2.85,5.57,2.86a2.8,2.8,0,0,0,.06-5.6C481.33,289.94,477,291.14,477,292.69Z"/><path class="cls-1" d="M480.92,278.7c-.79,1.34,2.27,4.61,3.39,5.27a2.8,2.8,0,1,0,2.86-4.81C486.05,278.49,481.72,277.37,480.92,278.7Z"/><path class="cls-1" d="M491.33,268.56c-1.36.76-.35,5.12.29,6.26a2.8,2.8,0,1,0,4.89-2.74C495.87,271,492.68,267.81,491.33,268.56Z"/></g><g id="WholeDay"><circle class="cls-1" cx="587.22" cy="285.22" r="12.13"/><path class="cls-1" d="M587.22,265c-1.12,0-2,3.1-2,4a2,2,0,1,0,4,0C589.24,268.1,588.34,265,587.22,265Z"/><path class="cls-1" d="M597.36,267.72c-1-.56-3.31,1.68-3.78,2.49a2,2,0,0,0,3.5,2C597.55,271.42,598.32,268.28,597.36,267.72Z"/><path class="cls-1" d="M604.76,275.15c-.56-1-3.7-.2-4.51.26a2,2,0,0,0,2,3.51C603.07,278.45,605.32,276.13,604.76,275.15Z"/><path class="cls-1" d="M607.45,285.3c0-1.12-3.1-2-4-2a2,2,0,1,0,0,4C604.33,287.31,607.44,286.42,607.45,285.3Z"/><path class="cls-1" d="M604.69,295.42c.56-1-1.67-3.31-2.48-3.79a2,2,0,0,0-2,3.5C601,295.6,604.12,296.39,604.69,295.42Z"/><path class="cls-1" d="M597.23,302.8c1-.56.22-3.7-.25-4.52a2,2,0,0,0-3.51,2C593.93,301.1,596.25,303.35,597.23,302.8Z"/><path class="cls-1" d="M587.07,305.44c1.12,0,2-3.08,2.06-4a2,2,0,1,0-4,0C585.07,302.33,586,305.44,587.07,305.44Z"/><path class="cls-1" d="M577,302.65c1,.57,3.32-1.65,3.8-2.46a2,2,0,0,0-3.49-2.05C576.79,299,576,302.08,577,302.65Z"/><path class="cls-1" d="M569.61,295.16c.55,1,3.7.24,4.52-.22a2,2,0,0,0-2-3.53C571.32,291.87,569.06,294.19,569.61,295.16Z"/><path class="cls-1" d="M567,285c0,1.12,3.08,2.06,4,2.07a2,2,0,0,0,.05-4.05C570.13,283,567,283.88,567,285Z"/><path class="cls-1" d="M569.83,274.9c-.57,1,1.64,3.32,2.45,3.8a2,2,0,0,0,2.06-3.48C573.54,274.74,570.41,273.93,569.83,274.9Z"/><path class="cls-1" d="M577.35,267.57c-1,.55-.25,3.7.21,4.52a2,2,0,0,0,3.53-2C580.63,269.3,578.33,267,577.35,267.57Z"/><path class="cls-1" d="M622.89,302.28a21,21,0,0,1-28.15,17.42.32.32,0,0,1,0-.59,27.89,27.89,0,0,0,17.79-26,27.59,27.59,0,0,0-2.64-11.82.32.32,0,0,1,.4-.43A20.89,20.89,0,0,1,622.89,302.28Z"/></g><g id="Day_intervals" data-name="Day intervals"><path class="cls-1" d="M690.44,279.84a3.55,3.55,0,0,0-.56.06,20.83,20.83,0,0,0-19,19,3.93,3.93,0,0,0-.06.59,13.83,13.83,0,0,1-5.51-11.11,14,14,0,0,1,14-14A13.83,13.83,0,0,1,690.44,279.84Z"/><path class="cls-1" d="M679.33,265c-1.29,0-2.33,3.58-2.33,4.67a2.34,2.34,0,0,0,4.67,0C681.67,268.58,680.62,265,679.33,265Z"/><path class="cls-1" d="M691,268.14c-1.11-.65-3.81,1.93-4.35,2.87a2.33,2.33,0,1,0,4,2.34C691.25,272.41,692.14,268.79,691,268.14Z"/><path class="cls-1" d="M697.38,280.75h0a18.92,18.92,0,0,1-2.21-.57,11.78,11.78,0,0,0-1.81-.29,2.75,2.75,0,0,1,1-2.86c.93-.53,4.57-1.31,5.2-.19C700.08,277.74,698.5,279.75,697.38,280.75Z"/><path class="cls-1" d="M671,303.92a18.3,18.3,0,0,1,.35,2.18v0c-1,1.09-3,2.86-3.93,2.3s-.15-4.26.41-5.19a2.63,2.63,0,0,1,3-.94A12.15,12.15,0,0,0,671,303.92Z"/><path class="cls-1" d="M659,299.8c.64,1.13,4.27.27,5.21-.26a2.33,2.33,0,1,0-2.29-4.06C661,296,658.38,298.68,659,299.8Z"/><path class="cls-1" d="M656,288.08c0,1.29,3.56,2.37,4.64,2.38a2.34,2.34,0,0,0,.05-4.67C659.61,285.78,656,286.78,656,288.08Z"/><path class="cls-1" d="M659.27,276.42c-.66,1.11,1.89,3.84,2.82,4.39a2.61,2.61,0,0,0,3.2-.82,2.59,2.59,0,0,0-.82-3.19C663.54,276.24,659.93,275.31,659.27,276.42Z"/><path class="cls-1" d="M667.94,268c-1.13.63-.29,4.27.24,5.21a2.33,2.33,0,1,0,4.07-2.28C671.72,270,669.07,267.34,667.94,268Z"/><path id="CIRCLE-5" data-name="CIRCLE" class="cls-1" d="M691.78,283.67a17.11,17.11,0,1,1-17.11,17.11,17.13,17.13,0,0,1,17.11-17.11m0-3.11A20.22,20.22,0,1,0,712,300.78a20.22,20.22,0,0,0-20.22-20.22Z"/><rect class="cls-1" x="691.33" y="283.75" width="1" height="2" rx="0.15" ry="0.15"/><rect class="cls-1" x="683.18" y="285.76" width="1.01" height="2.02" rx="0.15" ry="0.15" transform="translate(-51.79 380.27) rotate(-30)"/><rect class="cls-1" x="677.26" y="291.68" width="1.01" height="2.02" rx="0.15" ry="0.15" transform="translate(85.41 733.31) rotate(-60)"/><rect class="cls-1" x="674.33" y="300.75" width="2" height="1" rx="0.15" ry="0.15"/><rect class="cls-1" x="677.26" y="307.86" width="1.01" height="2.02" rx="0.15" ry="0.15" transform="translate(749.17 1050.26) rotate(-120)"/><rect class="cls-1" x="683.18" y="313.78" width="1.01" height="2.02" rx="0.15" ry="0.15" transform="translate(1118.39 929.25) rotate(-150)"/><rect class="cls-1" x="691.33" y="315.75" width="1" height="2" rx="0.15" ry="0.15"/><rect class="cls-1" x="699.36" y="313.78" width="1.01" height="2.02" rx="0.15" ry="0.15" transform="translate(1463.36 237.47) rotate(150)"/><rect class="cls-1" x="705.28" y="307.86" width="1.01" height="2.02" rx="0.15" ry="0.15" transform="translate(1326.17 -147.93) rotate(120)"/><rect class="cls-1" x="707.33" y="300.75" width="2" height="1" rx="0.15" ry="0.15"/><rect class="cls-1" x="705.28" y="291.68" width="1.01" height="2.02" rx="0.15" ry="0.15" transform="translate(606.37 -464.89) rotate(60)"/><rect class="cls-1" x="699.36" y="285.76" width="1.01" height="2.02" rx="0.15" ry="0.15" transform="translate(237.15 -311.51) rotate(30)"/><rect class="cls-1" x="690.33" y="287.75" width="2" height="14" rx="0.3" ry="0.3"/><rect class="cls-1" x="693.67" y="298.85" width="2.02" height="12.13" rx="0.3" ry="0.3" transform="translate(1438.62 156.24) rotate(145)"/></g><g id="Timepillar"><circle class="cls-1" cx="322.47" cy="293" r="4.67"/><circle class="cls-1" cx="322.47" cy="304.67" r="4.67"/><circle class="cls-1" cx="322.47" cy="316.33" r="4.67"/><circle class="cls-1" cx="322.47" cy="281.33" r="4.67"/><circle class="cls-1" cx="322.47" cy="269.67" r="4.67"/><rect class="cls-1" x="294" y="291.59" width="56" height="3" rx="0.5" ry="0.5"/></g><g id="List"><g id="HORIZONTAL"><rect class="cls-1" x="388" y="272.88" width="43.56" height="9.33" rx="1" ry="1"/></g><g id="HORIZONTAL-2" data-name="HORIZONTAL"><rect class="cls-1" x="400.44" y="287.46" width="43.56" height="9.33" rx="1" ry="1"/></g><g id="HORIZONTAL-3" data-name="HORIZONTAL"><rect class="cls-1" x="400.44" y="303.79" width="43.56" height="9.33" rx="1" ry="1"/></g></g></g><g id="Layer_53" data-name="Layer 53"><circle class="cls-1" cx="322" cy="572.43" r="3.39"/><path class="cls-1" d="M328.1,567.34a1.71,1.71,0,0,1-1.2-.5,6.94,6.94,0,0,0-9.8,0,1.7,1.7,0,1,1-2.4-2.4,10.34,10.34,0,0,1,14.6,0,1.7,1.7,0,0,1-1.2,2.9Z"/><path class="cls-1" d="M309.8,561.24a1.7,1.7,0,0,1-1.2-2.9,19,19,0,0,1,26.8,0,1.7,1.7,0,0,1-2.4,2.4,15.57,15.57,0,0,0-22,0A1.71,1.71,0,0,1,309.8,561.24Z"/><path class="cls-1" d="M303.7,555.14a1.7,1.7,0,0,1-1.2-2.9,27.61,27.61,0,0,1,39,0,1.68,1.68,0,0,1,0,2.4,1.7,1.7,0,0,1-2.4,0,24.21,24.21,0,0,0-34.2,0A1.71,1.71,0,0,1,303.7,555.14Z"/><g id="speaker"><path class="cls-1" d="M398,549.12h18a1.8,1.8,0,0,1,1.8,1.8v18.15a1.8,1.8,0,0,1-1.8,1.8H398a2,2,0,0,1-2-2V551.12A2,2,0,0,1,398,549.12Z"/><path class="cls-1" d="M415.37,579.36,396,560l19.36-19.36a2.17,2.17,0,0,1,3.71,1.54v35.64A2.17,2.17,0,0,1,415.37,579.36Z"/></g><path class="cls-1" d="M420.46,566.83a1.07,1.07,0,0,1-.78-.32,1.1,1.1,0,0,1,0-1.57,7.14,7.14,0,0,0,0-10.07,1.1,1.1,0,0,1,0-1.57,1.12,1.12,0,0,1,1.57,0,9.36,9.36,0,0,1,0,13.21A1.09,1.09,0,0,1,420.46,566.83Z"/><path class="cls-1" d="M424.06,572.65a1.09,1.09,0,0,1-.79-.32,1.12,1.12,0,0,1,0-1.57,15.36,15.36,0,0,0,0-21.71,1.11,1.11,0,1,1,1.57-1.57,17.59,17.59,0,0,1,0,24.85A1.07,1.07,0,0,1,424.06,572.65Z"/><path class="cls-1" d="M427.65,578.47a1.13,1.13,0,0,1-.78-.32,1.1,1.1,0,0,1,0-1.57,23.6,23.6,0,0,0,0-33.35,1.1,1.1,0,0,1,0-1.57,1.12,1.12,0,0,1,1.57,0,25.8,25.8,0,0,1,0,36.49A1.14,1.14,0,0,1,427.65,578.47Z"/><path class="cls-1" d="M512.55,540h-20a4,4,0,0,0-4,4v32a4,4,0,0,0,4,4h20a4,4,0,0,0,4-4v-1.65a9.44,9.44,0,0,1-3.74.76,11.42,11.42,0,0,1-1.55-.11,9.82,9.82,0,0,1-3.14-1H490.55V546h24v8.83a2.86,2.86,0,0,1,.82-.12,2.75,2.75,0,0,1,1.18.26V544A4,4,0,0,0,512.55,540Zm-12,36h4a1,1,0,0,1,0,2h-4a1,1,0,1,1,0-2Zm14-20.46V574h-4.63a9.71,9.71,0,0,0,1.44.32,9.19,9.19,0,0,0,5.19-.7V555.75a2.05,2.05,0,0,0-1.18-.36A2.37,2.37,0,0,0,514.55,555.54Z"/><path class="cls-1" d="M504.6,558.23c.95-1.28,2.08-1.79,3.54-1.08.31.15.38,0,.56-.22,1.36-1.53,2.37-1.69,3.87-.48.49.39.55.11.78-.14,1.12-1.17,2.91-1.27,3.74,0a33.84,33.84,0,0,1,3.82,6.72,8.5,8.5,0,0,1-9.55,11.29,9.14,9.14,0,0,1-3.14-1c-2.88-1.65-5.87-3.07-8.82-4.58a6.87,6.87,0,0,1-2.18-1.56,1.9,1.9,0,0,1,1-3.24,5.58,5.58,0,0,1,1.95-.14l2.1.26c-1.49-2.55-2.92-5-4.31-7.4a2.46,2.46,0,1,1,4.22-2.51c.61,1,1.17,2,1.75,3C504.14,557.45,504.35,557.8,504.6,558.23Z"/><path class="cls-6" d="M504.52,565.52l-5-8.53c-.73-1.25-.67-2.07.19-2.54s1.53-.12,2.28,1.17c1.38,2.37,2.75,4.74,4.16,7.09.17.3.21,1,.88.54s.07-.68-.07-1c-.36-.69-.79-1.35-1.17-2a1.41,1.41,0,1,1,2.42-1.43c.31.49.61,1,.89,1.52.19.36.38.4.73.19s.24-.42.08-.67a8.2,8.2,0,0,1-.46-.82,1.4,1.4,0,0,1,2.43-1.38c.35.51.65,1.07,1,1.62.15.26.29.44.62.21s.43-.27.24-.63a1.31,1.31,0,0,1,.66-2c.93-.4,1.52.15,2,1,.82,1.46,1.71,2.89,2.53,4.37a6.91,6.91,0,0,1-.47,7.94,7,7,0,0,1-7.38,2.73,4.09,4.09,0,0,1-.91-.25c-3.81-1.71-7.51-3.66-11.14-5.73-.51-.29-1-.7-.83-1.39s.87-.74,1.45-.77A18.17,18.17,0,0,1,504.52,565.52Z"/><rect class="cls-1" x="499.53" y="546.68" width="1.26" height="4.52" rx="0.63" ry="0.63"/><rect class="cls-1" x="496.23" y="547.51" width="1.26" height="4.52" rx="0.63" ry="0.63" transform="translate(-208.32 322.08) rotate(-30)"/><rect class="cls-1" x="493.79" y="549.88" width="1.26" height="4.52" rx="0.63" ry="0.63" transform="translate(-230.95 704.25) rotate(-60)"/><rect class="cls-1" x="492.86" y="553.14" width="1.26" height="4.52" rx="0.63" ry="0.63" transform="translate(-61.92 1048.89) rotate(-90)"/><rect class="cls-1" x="493.69" y="556.44" width="1.26" height="4.52" rx="0.63" ry="0.63" transform="translate(257.62 1266.14) rotate(-120)"/><rect class="cls-1" x="505.16" y="550.06" width="1.26" height="4.52" rx="0.63" ry="0.63" transform="translate(731.21 -161.87) rotate(60)"/><rect class="cls-1" x="502.8" y="547.62" width="1.26" height="4.52" rx="0.63" ry="0.63" transform="translate(342.38 -178.04) rotate(30)"/><path class="cls-1" d="M612,565a1,1,0,1,0,1,1A1,1,0,0,0,612,565Zm-1-13h-6.89v2H609v24h-4.89v2H611a4,4,0,0,0,4-4V556A4,4,0,0,0,611,552Z"/><path class="cls-1" d="M599,540H579a4,4,0,0,0-4,4v32a4,4,0,0,0,4,4h20a4,4,0,0,0,4-4V544A4,4,0,0,0,599,540Zm-8,38h-4a1,1,0,0,1,0-2h4a1,1,0,0,1,0,2Zm10-4H577V546h24Z"/><path class="cls-1" d="M612.78,550.53a.56.56,0,0,1-.56-.56,7,7,0,0,0-.07-1,.55.55,0,0,1,.47-.62.54.54,0,0,1,.63.47,7.71,7.71,0,0,1,.08,1.18A.56.56,0,0,1,612.78,550.53Zm-.49-2.72a.55.55,0,0,1-.52-.36,6.16,6.16,0,0,0-.43-.94.56.56,0,0,1,.21-.75.56.56,0,0,1,.76.21,8.28,8.28,0,0,1,.5,1.09.54.54,0,0,1-.33.71A.41.41,0,0,1,612.29,547.81Zm-1.42-2.38a.55.55,0,0,1-.42-.19,5.52,5.52,0,0,0-.73-.72.57.57,0,0,1-.05-.79.55.55,0,0,1,.78-.06,8.33,8.33,0,0,1,.84.84.56.56,0,0,1,0,.79A.58.58,0,0,1,610.87,545.43Zm-2.15-1.72a.68.68,0,0,1-.27-.07,6.46,6.46,0,0,0-.93-.42.56.56,0,0,1-.34-.71.57.57,0,0,1,.72-.34,8.1,8.1,0,0,1,1.08.49.57.57,0,0,1,.23.76A.56.56,0,0,1,608.72,543.71Zm-2.63-.86H606a6.59,6.59,0,0,0-1-.07.56.56,0,1,1,0-1.11,8.72,8.72,0,0,1,1.14.07.57.57,0,0,1,.47.63A.55.55,0,0,1,606.09,542.85Z"/><path class="cls-1" d="M784,540H764a4,4,0,0,0-4,4v32a4,4,0,0,0,4,4h20a4,4,0,0,0,4-4V544A4,4,0,0,0,784,540Zm-8,38h-4a1,1,0,0,1,0-2h4a1,1,0,0,1,0,2Zm10-4H762V546h24Z"/><path class="cls-1" d="M784,560.2a6.42,6.42,0,0,1-.64,2.87,4.94,4.94,0,0,1-1.76,2.06,4.53,4.53,0,0,1-5.45-.37,8.13,8.13,0,0,1-2.16-3.24,8.24,8.24,0,0,1-2.16,3.25,4.38,4.38,0,0,1-2.9,1.1,4.45,4.45,0,0,1-3.53-1.62,6.21,6.21,0,0,1-1.4-4.18v-.26a6.6,6.6,0,0,1,.63-2.88,5,5,0,0,1,1.76-2.06,4.51,4.51,0,0,1,2.52-.74,4.37,4.37,0,0,1,2.92,1.11,8.32,8.32,0,0,1,2.16,3.25,8.22,8.22,0,0,1,2.17-3.25,4.51,4.51,0,0,1,5.44-.37,5,5,0,0,1,1.75,2,6.59,6.59,0,0,1,.65,2.81Zm-18.76,0a6,6,0,0,0,.46,2.34,3.83,3.83,0,0,0,1.29,1.67,3.18,3.18,0,0,0,1.94.61,3.45,3.45,0,0,0,2.57-1.21,8.41,8.41,0,0,0,1.8-3.39v-.44l-.06-.2a8,8,0,0,0-1.8-3.23,3.49,3.49,0,0,0-2.53-1.15,3.18,3.18,0,0,0-2.65,1.32,5.41,5.41,0,0,0-1,3.4Zm17.5-.39a5.87,5.87,0,0,0-.46-2.35,4,4,0,0,0-1.29-1.68,3.15,3.15,0,0,0-1.88-.58,3.48,3.48,0,0,0-2.56,1.16,8,8,0,0,0-1.78,3.18l-.07.24v.44l.08.28a7.94,7.94,0,0,0,1.76,3.15,3.47,3.47,0,0,0,2.54,1.17,3.19,3.19,0,0,0,2.64-1.32,5.4,5.4,0,0,0,1-3.42Z"/><path class="cls-1" d="M779.08,566.37a4.91,4.91,0,0,1-3.26-1.23,8,8,0,0,1-1.83-2.41,7.92,7.92,0,0,1-1.84,2.42,4.85,4.85,0,0,1-3.22,1.22,4.93,4.93,0,0,1-3.91-1.8,6.68,6.68,0,0,1-1.52-4.5v-.26a7.17,7.17,0,0,1,.68-3.1,5.56,5.56,0,0,1,1.94-2.26,5,5,0,0,1,2.79-.82,4.84,4.84,0,0,1,3.24,1.23,7.85,7.85,0,0,1,1.84,2.43,7.72,7.72,0,0,1,1.85-2.43,5,5,0,0,1,6-.4,5.54,5.54,0,0,1,1.92,2.22,7.29,7.29,0,0,1,.7,3v.5a7,7,0,0,1-.69,3.08,5.54,5.54,0,0,1-1.93,2.26A5,5,0,0,1,779.08,566.37ZM774,560.19l.46,1.14a7.81,7.81,0,0,0,2,3,4,4,0,0,0,4.86.33,4.44,4.44,0,0,0,1.58-1.86,6,6,0,0,0,.59-2.64v-.5a6.23,6.23,0,0,0-.6-2.59,4.61,4.61,0,0,0-1.57-1.83,4,4,0,0,0-4.84.33,7.72,7.72,0,0,0-2,3.06l-.46,1.14-.47-1.14a7.7,7.7,0,0,0-2-3.06,3.81,3.81,0,0,0-2.59-1,3.88,3.88,0,0,0-2.24.66,4.44,4.44,0,0,0-1.58,1.86,6,6,0,0,0-.59,2.66v.26a5.76,5.76,0,0,0,1.27,3.85,4,4,0,0,0,3.16,1.45,3.86,3.86,0,0,0,2.58-1,7.8,7.8,0,0,0,2-3.06Zm5.09,5.13a3.93,3.93,0,0,1-2.9-1.33,8.46,8.46,0,0,1-1.87-3.34l-.11-.43,0-.59.07-.24A8.29,8.29,0,0,1,776.2,556a4,4,0,0,1,2.9-1.31,3.67,3.67,0,0,1,2.18.68,4.43,4.43,0,0,1,1.46,1.88,6.59,6.59,0,0,1,.5,2.55v.27a5.91,5.91,0,0,1-1.12,3.73A3.7,3.7,0,0,1,779.08,565.32Zm-3.88-5.18.06.22a7.41,7.41,0,0,0,1.64,2.94,3,3,0,0,0,2.18,1,2.71,2.71,0,0,0,2.25-1.12,5,5,0,0,0,.91-3.12v-.27a5.54,5.54,0,0,0-.42-2.16,3.5,3.5,0,0,0-1.12-1.46,2.66,2.66,0,0,0-1.6-.49,3,3,0,0,0-2.19,1,7.45,7.45,0,0,0-1.66,3l0,.16Zm-6.27,5.18a3.74,3.74,0,0,1-2.23-.7,4.43,4.43,0,0,1-1.46-1.89,6.3,6.3,0,0,1-.5-2.52v-.29a6,6,0,0,1,1.12-3.71,3.7,3.7,0,0,1,3-1.51,3.94,3.94,0,0,1,2.88,1.3,8.47,8.47,0,0,1,1.92,3.43l.09.35,0,.58a8.84,8.84,0,0,1-1.92,3.59A3.93,3.93,0,0,1,768.93,565.32Zm0-9.62a2.66,2.66,0,0,0-2.25,1.12,5,5,0,0,0-.92,3.1v.29a5.29,5.29,0,0,0,.42,2.13,3.5,3.5,0,0,0,1.12,1.47,2.76,2.76,0,0,0,1.65.51,3,3,0,0,0,2.21-1.05,7.82,7.82,0,0,0,1.66-3.13l0-.41a7.47,7.47,0,0,0-1.68-3A3,3,0,0,0,768.91,555.7Z"/><path class="cls-1" d="M873,540H853a4,4,0,0,0-4,4v32a4,4,0,0,0,4,4h20a4,4,0,0,0,4-4V544A4,4,0,0,0,873,540Zm-8,38h-4a1,1,0,0,1,0-2h4a1,1,0,0,1,0,2Zm10-4H851V546h24Z"/><path class="cls-1" d="M865.28,565.84h-2.82V555l-3.37,1v-2.28l5.89-2.1h.3Z"/><path class="cls-1" d="M694,540H674a4,4,0,0,0-4,4v32a4,4,0,0,0,4,4h20a4,4,0,0,0,4-4V544A4,4,0,0,0,694,540Zm-8,38h-4a1,1,0,0,1,0-2h4a1,1,0,0,1,0,2Zm10-4H672V546h24Z"/><path class="cls-1" d="M678.58,557.6a2.12,2.12,0,0,0,1.66-.57,2.37,2.37,0,0,0,.51-1.62,2,2,0,0,0-2.13-2.09,2.29,2.29,0,0,0-1.59.58,1.85,1.85,0,0,0-.64,1.43h-2.27l0-.06a3.28,3.28,0,0,1,1.24-2.74,5.58,5.58,0,0,1,6.56-.09,3.66,3.66,0,0,1,1.21,3,3.27,3.27,0,0,1-.53,1.8,3.61,3.61,0,0,1-1.48,1.27,3.46,3.46,0,0,1,1.66,1.3,3.68,3.68,0,0,1,.58,2.08,3.81,3.81,0,0,1-1.32,3.08,5.1,5.1,0,0,1-3.4,1.11,5.31,5.31,0,0,1-3.29-1.06,3.29,3.29,0,0,1-1.37-2.9l0-.05h2.29a1.92,1.92,0,0,0,.66,1.5,2.36,2.36,0,0,0,1.69.62,2.33,2.33,0,0,0,1.71-.64,2.26,2.26,0,0,0,.63-1.65,2.1,2.1,0,0,0-2.38-2.4H677V557.6Z"/><path class="cls-1" d="M694.62,560.76a5.6,5.6,0,0,1-1.26,3.87,4.76,4.76,0,0,1-6.78,0,5.55,5.55,0,0,1-1.28-3.87v-4a5.59,5.59,0,0,1,1.27-3.87,4.73,4.73,0,0,1,6.78,0,5.59,5.59,0,0,1,1.27,3.87Zm-2.37-4.4a3.67,3.67,0,0,0-.6-2.23,2,2,0,0,0-1.69-.81,2,2,0,0,0-1.69.81,3.67,3.67,0,0,0-.6,2.23v4.74a3.65,3.65,0,0,0,.61,2.25,2,2,0,0,0,1.7.81,2,2,0,0,0,1.68-.8,3.8,3.8,0,0,0,.59-2.26Z"/><path class="cls-1" d="M960,540H940a4,4,0,0,0-4,4v32a4,4,0,0,0,4,4h20a4,4,0,0,0,4-4V544A4,4,0,0,0,960,540Zm-8,38h-4a1,1,0,0,1,0-2h4a1,1,0,0,1,0,2Zm10-4H938V546h24Z"/><path class="cls-1" d="M954,554.93h0v-3.66a1,1,0,0,0-1-1,1,1,0,0,0-1,1v3.66h-4v-3.66a1,1,0,0,0-1-1,1,1,0,0,0-1,1v3.66h0a1,1,0,0,0-1,1v3a5,5,0,0,0,4,4.9c-.25,1.85-.7,2.88-.95,3,0,0-.23-.05-.65-.6-.93-1.2-1.79-1.25-2.34-1.08-1.61.51-2,3.64-2.08,5.46l0,1,2,.09,0-1a11,11,0,0,1,.64-3.47l.19.22C947,569,948,569,948.68,568.75c1.49-.53,2.11-2.81,2.36-4.93a5,5,0,0,0,4-4.88v-3A1,1,0,0,0,954,554.93Z"/></g></svg>